<?xml version="1.0" encoding="UTF-8"?><svg id="Layer_2" xmlns="http://www.w3.org/2000/svg" viewBox="0 0 198.43 340.16"><defs><style>.cls-1{fill:#fff;}.cls-2{fill:none;}.cls-3{opacity:.3;}</style></defs><g id="Layer_1-2"><g id="Icons"><g id="_C"><rect class="cls-2" width="198.43" height="340.16"/><g class="cls-3"><path class="cls-1" d="M99.21,140.15c16.5,0,29.93,13.43,29.93,29.93s-13.43,29.93-29.93,29.93-29.93-13.43-29.93-29.93,13.43-29.93,29.93-29.93m0,58.73c15.88,0,28.8-12.92,28.8-28.8s-12.92-28.8-28.8-28.8-28.8,12.92-28.8,28.8,12.92,28.8,28.8,28.8m0-60.15c-17.29,0-31.35,14.06-31.35,31.35s14.06,31.35,31.35,31.35,31.35-14.06,31.35-31.35-14.06-31.35-31.35-31.35h0Zm0,58.73c-15.1,0-27.38-12.28-27.38-27.38s12.28-27.38,27.38-27.38,27.38,12.28,27.38,27.38-12.28,27.38-27.38,27.38h0Z"/></g></g></g></g></svg>