<?xml version="1.0" encoding="UTF-8"?><svg id="Layer_2" xmlns="http://www.w3.org/2000/svg" viewBox="0 0 198.43 340.16"><defs><style>.cls-1{stroke-width:1.42px;}.cls-1,.cls-2{stroke:#fff;stroke-miterlimit:10;}.cls-1,.cls-2,.cls-3{fill:none;}.cls-2{stroke-width:.99px;}</style></defs><g id="Layer_1-2"><g id="_1-Magician"><rect class="cls-3" width="198.43" height="340.16"/><g id="_1-Magician-2"><line class="cls-1" x1="44.7" y1="184.11" x2="153.72" y2="154.46"/><line class="cls-1" x1="44.59" y1="154.87" x2="153.83" y2="183.7"/><polygon class="cls-1" points="87.98 180.58 110.45 180.58 99.21 202.99 87.98 180.58"/><line class="cls-1" x1="136.51" y1="191.05" x2="142.39" y2="168.93"/><circle class="cls-1" cx="99.21" cy="146.49" r="11.56"/><path class="cls-1" d="M86.01,78.38c-4.73-.43-9.49-4.57-9.49-8.35s4.76-7.92,9.49-8.35c10.72-.98,15.67,17.68,26.4,16.71,4.73-.43,9.49-4.57,9.49-8.35s-4.76-7.92-9.49-8.35c-10.73-.98-15.68,17.68-26.4,16.71Z"/><path class="cls-2" d="M90.53,274.02c-1.22-1.73-1.94-3.85-1.94-6.13,0-5.87,4.76-10.63,10.63-10.63s10.63,4.76,10.63,10.63-4.76,10.63-10.63,10.63c-1.56,0-3.03-.33-4.37-.94"/><polygon class="cls-2" points="89.56 275.45 92.24 273.23 92.62 276.45 89.56 275.45"/></g></g></g></svg>