<?xml version="1.0" encoding="UTF-8"?><svg id="Layer_2" xmlns="http://www.w3.org/2000/svg" viewBox="0 0 198.43 340.16"><defs><style>.cls-1{fill:#fff;}.cls-2{stroke:#fff;stroke-miterlimit:10;stroke-width:1.42px;}.cls-2,.cls-3{fill:none;}</style></defs><g id="Layer_1-2"><g id="_2-Priestess"><rect class="cls-3" width="198.43" height="340.16"/><g id="_2-Priestess-2"><line class="cls-2" x1="99.21" y1="89.49" x2="99.21" y2="234.66"/><line class="cls-2" x1="65.57" y1="122.66" x2="132.86" y2="122.66"/><line class="cls-2" x1="82.27" y1="105.37" x2="116.15" y2="105.37"/><path class="cls-1" d="M91.76,78.46c.4,3.76,3.59,6.69,7.45,6.69s7.05-2.94,7.45-6.69c.24,.75,.37,1.54,.37,2.36,0,4.31-3.51,7.82-7.82,7.82s-7.82-3.51-7.82-7.82c0-.82,.13-1.62,.37-2.36m10.38-6.26c1.88,1.03,3.15,3.17,3.15,5.46,0,3.35-2.72,6.07-6.07,6.07s-6.07-2.72-6.07-6.07c0-2.3,1.27-4.43,3.15-5.46-3.66,1.23-6.31,4.55-6.31,8.62,0,5.1,4.13,9.23,9.23,9.23s9.23-4.13,9.23-9.23c0-4.07-2.65-7.4-6.31-8.62h0Z"/><path class="cls-1" d="M109.84,246.13c1.52,2.1,2.38,4.66,2.38,7.41,0,7.17-5.83,13-13,13s-13-5.83-13-13c0-2.75,.86-5.31,2.38-7.41-.18,.81-.28,1.64-.28,2.48,0,6.01,4.89,10.9,10.9,10.9s10.9-4.89,10.9-10.9c0-.84-.1-1.67-.28-2.48m-6.05-6.05c2.94,1.61,4.91,4.94,4.91,8.53,0,5.24-4.25,9.48-9.48,9.48s-9.48-4.25-9.48-9.48c0-3.59,1.98-6.92,4.91-8.53-5.72,1.91-9.85,7.1-9.85,13.46,0,7.96,6.46,14.42,14.42,14.42s14.42-6.46,14.42-14.42c0-6.36-4.13-11.55-9.85-13.46h0Z"/></g></g></g></svg>