<?xml version="1.0" encoding="UTF-8"?><svg id="Layer_2" xmlns="http://www.w3.org/2000/svg" viewBox="0 0 198.43 340.16"><defs><style>.cls-1{fill:#fff;}.cls-2{fill:none;}</style></defs><g id="Layer_1-2"><g id="_2-Coins"><rect class="cls-2" width="198.43" height="340.16"/><g id="_2-Coins-2"><path class="cls-1" d="M75.85,181.08c-12.53,0-22.73-10.2-22.73-22.73s10.2-22.73,22.73-22.73,22.73,10.2,22.73,22.73-10.2,22.73-22.73,22.73Zm0-44.05c-11.75,0-21.31,9.56-21.31,21.32s9.56,21.31,21.31,21.31,21.32-9.56,21.32-21.31-9.56-21.32-21.32-21.32Z"/><path class="cls-1" d="M122.58,204.54c-12.54,0-22.73-10.2-22.73-22.73s10.2-22.73,22.73-22.73,22.73,10.2,22.73,22.73-10.2,22.73-22.73,22.73Zm0-44.05c-11.75,0-21.32,9.56-21.32,21.31s9.56,21.32,21.32,21.32,21.31-9.56,21.31-21.32-9.56-21.31-21.31-21.31Z"/></g></g></g></svg>