<?xml version="1.0" encoding="UTF-8"?><svg id="Layer_2" xmlns="http://www.w3.org/2000/svg" xmlns:xlink="http://www.w3.org/1999/xlink" viewBox="0 0 198.43 340.16"><defs><style>.cls-1{fill:#fff;}</style><symbol id="Card_Front" viewBox="0 0 198.43 340.16"><g id="Front"><rect id="BG" x="0" width="198.43" height="340.16" rx="14.17" ry="14.17"/><path class="cls-1" d="M170.58,326.48H27.86v-.5c0-7.55-6.14-13.68-13.68-13.68h-.5V27.85h.5c7.55,0,13.68-6.13,13.68-13.67v-.5H170.58v.5c0,7.54,6.13,13.67,13.67,13.67h.5V312.3h-.5c-7.54,0-13.67,6.14-13.67,13.68v.5Zm-141.74-.99H169.59c.26-7.7,6.47-13.92,14.16-14.17V28.83c-7.69-.26-13.91-6.47-14.16-14.16H28.84c-.26,7.69-6.47,13.9-14.17,14.16V311.32c7.7,.26,13.92,6.47,14.17,14.17Z"/></g></symbol></defs><g id="Layer_1-2"><g id="_1-Wands"><use width="198.43" height="340.16" xlink:href="#Card_Front"/></g></g></svg>