<?xml version="1.0" encoding="UTF-8"?><svg id="Layer_2" xmlns="http://www.w3.org/2000/svg" viewBox="0 0 1044.02 1025.95"><defs><style>.cls-1{fill:#fff;}</style></defs><g id="Layer_1-2"><g id="Stars"><g><circle class="cls-1" cx="844.55" cy="551.49" r="1.94"/><circle class="cls-1" cx="548.38" cy="549.23" r="1.97"/></g><g><circle class="cls-1" cx="528.68" cy="420.09" r=".9"/><circle class="cls-1" cx="473.1" cy="469.39" r=".54"/><circle class="cls-1" cx="617.38" cy="314" r="1.22"/></g><circle class="cls-1" cx="266.46" cy="168.12" r="1.06"/><circle class="cls-1" cx="303.77" cy="326.19" r=".51"/><circle class="cls-1" cx="301.99" cy="202.41" r="1.33"/><circle class="cls-1" cx="389.05" cy="567.24" r=".79"/><circle class="cls-1" cx="319.49" cy="533.65" r="1.91"/><circle class="cls-1" cx="715.96" cy="465.55" r="1.54"/><circle class="cls-1" cx="714.18" cy="238.71" r=".72"/><circle class="cls-1" cx="491.17" cy="702.62" r=".56"/><circle class="cls-1" cx="512.53" cy="127.78" r="1.76"/><circle class="cls-1" cx="352.63" cy="83.24" r="1.61"/><circle class="cls-1" cx="216.71" cy="79.92" r="1.04"/><circle class="cls-1" cx="251.8" cy="454.93" r="1.55"/><circle class="cls-1" cx="309.55" cy="299.57" r="1.34"/><circle class="cls-1" cx="560.94" cy="411.77" r=".6"/><circle class="cls-1" cx="700.86" cy="500.46" r=".58"/><circle class="cls-1" cx="778.81" cy="857.46" r=".54"/><circle class="cls-1" cx="428.14" cy="752.6" r="1.71"/><circle class="cls-1" cx="319.76" cy="623.38" r="1.15"/><circle class="cls-1" cx="246.92" cy="263.18" r="1.04"/><circle class="cls-1" cx="267.79" cy="397.18" r="1.95"/><circle class="cls-1" cx="172.74" cy="302.83" r="1.1"/><circle class="cls-1" cx="213.16" cy="261.7" r="1.41"/><circle class="cls-1" cx="481.87" cy="385.87" r="1.88"/><circle class="cls-1" cx="658.22" cy="626.83" r="1"/><circle class="cls-1" cx="607.53" cy="638.72" r=".74"/><circle class="cls-1" cx="253.49" cy="527.7" r="1.25"/><circle class="cls-1" cx="578.66" cy="236.29" r="1.28"/><circle class="cls-1" cx="574.71" cy="190.18" r=".72"/><circle class="cls-1" cx="716.85" cy="145.43" r=".69"/><circle class="cls-1" cx="718.62" cy="119.57" r=".81"/><circle class="cls-1" cx="484.55" cy="400.96" r="1.43"/><circle class="cls-1" cx="210.5" cy="342.08" r="1.09"/><circle class="cls-1" cx="399.15" cy="652.38" r="1.02"/><circle class="cls-1" cx="230.93" cy="436.3" r=".72"/><circle class="cls-1" cx="209.61" cy="121.48" r="1.19"/><g><circle class="cls-1" cx="697.45" cy="399.77" r=".97"/><circle class="cls-1" cx="514.17" cy="614.52" r="1.13"/><circle class="cls-1" cx="357.36" cy="463.97" r="1.23"/><circle class="cls-1" cx="173.67" cy="396.05" r=".68"/></g><g><circle class="cls-1" cx="536.02" cy="862.11" r=".56"/><circle class="cls-1" cx="700.13" cy="1025.46" r=".5"/></g><g><circle class="cls-1" cx="959.78" cy="270.11" r="1.43"/><circle class="cls-1" cx="515.28" cy="391.47" r=".57"/><circle class="cls-1" cx="550.51" cy="554.96" r="1.02"/><circle class="cls-1" cx="294.77" cy="626.71" r="1.6"/><circle class="cls-1" cx="509.8" cy="640.9" r="1.85"/><circle class="cls-1" cx="323.57" cy="643.32" r="1.29"/><circle class="cls-1" cx="215.64" cy="473.26" r="1.68"/><circle class="cls-1" cx="121.7" cy="454.06" r=".83"/><circle class="cls-1" cx="97.62" cy="390.87" r=".72"/><circle class="cls-1" cx="307.54" cy="485.71" r="1.25"/><circle class="cls-1" cx="138.03" cy="197.7" r="1.88"/><circle class="cls-1" cx="372.77" cy="441.08" r="1.42"/><circle class="cls-1" cx="281.35" cy="623.73" r="1.3"/><circle class="cls-1" cx="431.8" cy="442.5" r=".65"/><circle class="cls-1" cx="426.01" cy="629.34" r="1.74"/><circle class="cls-1" cx="309.63" cy="759.7" r=".72"/><circle class="cls-1" cx="540.84" cy="695.94" r="1.17"/></g><g><circle class="cls-1" cx="195.38" cy="195.84" r="1.19"/><circle class="cls-1" cx="467.29" cy="357.62" r=".59"/><circle class="cls-1" cx="121.92" cy="490.22" r="1.34"/></g><g><circle class="cls-1" cx="1020.88" cy="552.66" r="1.4"/><circle class="cls-1" cx="878.24" cy="232.39" r=".64"/></g><g><circle class="cls-1" cx="919.34" cy="805.18" r="1.96"/><circle class="cls-1" cx="688.94" cy="585.86" r=".59"/><circle class="cls-1" cx="836.74" cy="282.54" r="1.68"/><circle class="cls-1" cx="843.33" cy="17.75" r="1.3"/></g><g><circle class="cls-1" cx="637.71" cy="999.77" r="1.95"/><circle class="cls-1" cx="882.79" cy="756.13" r=".76"/><circle class="cls-1" cx="761.9" cy="599.3" r="1.12"/><circle class="cls-1" cx="352.01" cy="284.99" r="1.04"/><circle class="cls-1" cx="450" cy="89.24" r="1.97"/></g><g><circle class="cls-1" cx="232.14" cy="923.67" r="1.85"/><circle class="cls-1" cx="608.77" cy="507.63" r="1.89"/><circle class="cls-1" cx="354.13" cy="246.91" r="1.24"/></g><g><circle class="cls-1" cx="805.07" cy="479.77" r="1.39"/><circle class="cls-1" cx="575.55" cy="212.41" r="1.16"/><circle class="cls-1" cx="193.51" cy="223.71" r="1.53"/></g><g><circle class="cls-1" cx="979.82" cy="444.54" r=".61"/><circle class="cls-1" cx="729.13" cy="744.83" r=".96"/><circle class="cls-1" cx="603.65" cy="220.13" r="1.92"/><circle class="cls-1" cx="247.41" cy="535.97" r="1.29"/><circle class="cls-1" cx="94.04" cy="425.49" r="1.29"/></g><g><circle class="cls-1" cx="1036.14" cy="480.99" r="1.85"/><circle class="cls-1" cx="687.83" cy="587.78" r="1.9"/><circle class="cls-1" cx="389.91" cy="330.21" r=".69"/></g><g><circle class="cls-1" cx="1041.02" cy="73.18" r="1.55"/><circle class="cls-1" cx="718.23" cy="121.4" r=".68"/></g><g><circle class="cls-1" cx="449.85" cy="227.96" r=".91"/><circle class="cls-1" cx="327.05" cy="23.83" r=".87"/><circle class="cls-1" cx="98.71" cy="167.74" r="1.43"/><circle class="cls-1" cx="158.3" cy="90.4" r="1.44"/></g><g><circle class="cls-1" cx="208.93" cy="941.25" r="1.32"/><circle class="cls-1" cx="677.23" cy="823.63" r=".89"/><circle class="cls-1" cx="801.89" cy="706.57" r=".83"/><circle class="cls-1" cx="711.41" cy="421.76" r="1.66"/><circle class="cls-1" cx="823.81" cy="170.4" r=".57"/><circle class="cls-1" cx="1027.76" cy="139.99" r="1.49"/></g><g><circle class="cls-1" cx="407.63" cy="770.17" r="1.88"/><circle class="cls-1" cx="509.52" cy="398.96" r=".98"/><circle class="cls-1" cx="735.6" cy="580.21" r="1.3"/></g><g><circle class="cls-1" cx="511.33" cy="886.78" r="1.34"/><circle class="cls-1" cx="663.67" cy="569.01" r=".67"/><circle class="cls-1" cx="829.78" cy="376.13" r="1.5"/></g><g><circle class="cls-1" cx="132.66" cy="550.87" r=".56"/><circle class="cls-1" cx="601.06" cy="634.11" r="1.66"/><circle class="cls-1" cx="360.37" cy="953.73" r="1.3"/></g><g><circle class="cls-1" cx="648.81" cy="154.56" r="1.67"/><circle class="cls-1" cx="644.63" cy="434.49" r=".81"/></g><g><circle class="cls-1" cx="246.23" cy="717.56" r="1.26"/><circle class="cls-1" cx="373.94" cy="367.69" r=".95"/><circle class="cls-1" cx="813.7" cy="477.12" r="1.56"/></g><g><circle class="cls-1" cx="235.37" cy="350.76" r=".84"/><circle class="cls-1" cx="213.05" cy="511.1" r="1.55"/><circle class="cls-1" cx="154.4" cy="634.49" r="1.69"/></g><g><circle class="cls-1" cx="312.77" cy="327.8" r="1.85"/><circle class="cls-1" cx="344.68" cy="504.88" r="1.46"/></g><g><circle class="cls-1" cx="610.66" cy="147.8" r="1.37"/><circle class="cls-1" cx="256.76" cy="311.08" r=".73"/><circle class="cls-1" cx="98.38" cy="640.27" r=".81"/></g><g><circle class="cls-1" cx="91.67" cy="499.16" r="1.32"/><circle class="cls-1" cx="481.36" cy="623.68" r="1.77"/><circle class="cls-1" cx="494.37" cy="905.76" r=".73"/></g><g><circle class="cls-1" cx="609.74" cy="504.14" r="1.24"/><circle class="cls-1" cx="582.3" cy="737.26" r="1.08"/></g><g><circle class="cls-1" cx="128.68" cy="613.23" r="1.02"/><circle class="cls-1" cx="379.76" cy="850.52" r="1.38"/></g><g><circle class="cls-1" cx="668.7" cy="40.38" r="1.39"/><circle class="cls-1" cx="703.6" cy="536.55" r="1.38"/><circle class="cls-1" cx="846.04" cy="643.02" r="1.45"/><circle class="cls-1" cx="1043.47" cy="848.12" r=".54"/></g><g><circle class="cls-1" cx="946.54" cy="92.11" r="1.77"/><circle class="cls-1" cx="960.19" cy="274.13" r="1.7"/><circle class="cls-1" cx="912.42" cy="687.88" r="1.66"/><circle class="cls-1" cx="586.12" cy="770.11" r="1.78"/><circle class="cls-1" cx="738.57" cy="1001.7" r="1.86"/></g><g><circle class="cls-1" cx="807.4" cy="754.74" r="1.63"/><circle class="cls-1" cx="718.46" cy="762.97" r=".76"/></g><circle class="cls-1" cx="114.81" cy="967.39" r="1.71"/><circle class="cls-1" cx="48.53" cy="893.44" r="1.14"/><g><circle class="cls-1" cx="159.28" cy="494.64" r="1.86"/><circle class="cls-1" cx="68.19" cy="265.49" r="1.15"/><circle class="cls-1" cx="333.43" cy="35.36" r="1.94"/><circle class="cls-1" cx="718.99" cy="108.04" r=".53"/></g><g><circle class="cls-1" cx="102.04" cy="593.42" r=".59"/><circle class="cls-1" cx="244.6" cy="300.77" r="1.1"/></g><g><circle class="cls-1" cx="294.22" cy="856.87" r=".92"/><circle class="cls-1" cx="429.03" cy="294.18" r="1.43"/></g><circle class="cls-1" cx="85.43" cy="660.2" r="1.12"/><circle class="cls-1" cx="113.67" cy="427.15" r=".5"/><g><circle class="cls-1" cx="487.93" cy="756.22" r="1.42"/><circle class="cls-1" cx="245.01" cy="724.8" r="1.22"/><circle class="cls-1" cx="199.3" cy="516.28" r="1.17"/></g><g><circle class="cls-1" cx="177.49" cy="896" r="1.94"/><circle class="cls-1" cx="142.02" cy="227.34" r="1.52"/></g><g><circle class="cls-1" cx="595.87" cy="195.05" r="1.84"/><circle class="cls-1" cx="801.02" cy="540.1" r="1.97"/><circle class="cls-1" cx="816.18" cy="864.06" r=".96"/><circle class="cls-1" cx="971.68" cy="429.69" r="1.29"/><circle class="cls-1" cx="797.76" cy="91.6" r=".63"/><circle class="cls-1" cx="313.05" cy="292.49" r=".66"/><circle class="cls-1" cx="337.85" cy="614.91" r=".91"/><circle class="cls-1" cx="541.48" cy="928.21" r="1.85"/><circle class="cls-1" cx="184.48" cy="970.05" r=".55"/><circle class="cls-1" cx="763.87" cy="808.17" r="1.2"/><circle class="cls-1" cx="887.18" cy="598.91" r="1.13"/><circle class="cls-1" cx="888.67" cy="452.61" r=".78"/><circle class="cls-1" cx="492.86" cy="110.11" r="1.2"/><circle class="cls-1" cx="120.06" cy="3.34" r=".8"/><circle class="cls-1" cx="61.51" cy="194.93" r="1.68"/><circle class="cls-1" cx="163.9" cy="542" r=".53"/><circle class="cls-1" cx="92.61" cy="845.93" r=".59"/><circle class="cls-1" cx="785.48" cy="940.82" r="1.01"/><circle class="cls-1" cx="324.15" cy="789.53" r=".68"/><circle class="cls-1" cx="551.01" cy="525.46" r="1.87"/><circle class="cls-1" cx="318.01" cy="367.22" r=".64"/><circle class="cls-1" cx="534.23" cy="228.44" r="1.82"/><circle class="cls-1" cx="576.48" cy="1.46" r="1.46"/><circle class="cls-1" cx="52.54" cy="764.81" r=".77"/><circle class="cls-1" cx="237.58" cy="441.97" r="1.97"/><circle class="cls-1" cx="558.03" cy="197.11" r="1.49"/></g><g><circle class="cls-1" cx="362.25" cy="385.14" r="1.2"/><circle class="cls-1" cx="604.78" cy="514.09" r=".88"/><circle class="cls-1" cx="941.52" cy="772.63" r=".83"/><circle class="cls-1" cx="853.43" cy="109.37" r=".66"/><circle class="cls-1" cx="393.93" cy="307.55" r="1.44"/><circle class="cls-1" cx="31.02" cy="578.18" r="1.45"/><circle class="cls-1" cx="204.42" cy="788.25" r=".86"/><circle class="cls-1" cx="328.97" cy="879.5" r="1.33"/><circle class="cls-1" cx="560.55" cy="847.39" r="1.51"/><circle class="cls-1" cx="743.08" cy="880.86" r="1.07"/><circle class="cls-1" cx="942.3" cy="977.08" r="1.79"/><circle class="cls-1" cx="924.64" cy="247.86" r="1.09"/><circle class="cls-1" cx="602.72" cy="321.14" r=".6"/><circle class="cls-1" cx="346.21" cy="258.45" r="1.33"/><circle class="cls-1" cx="164.04" cy="286.69" r="1.7"/><circle class="cls-1" cx="99.68" cy="1005.85" r="1.39"/><circle class="cls-1" cx="792.63" cy="947.81" r="1.4"/><circle class="cls-1" cx="961.66" cy="916.74" r="1.55"/><circle class="cls-1" cx="989.27" cy="603.62" r="1.68"/><circle class="cls-1" cx="733.98" cy="246.29" r="1.88"/><circle class="cls-1" cx="364.31" cy="440.14" r=".94"/></g><g><circle class="cls-1" cx="968.98" cy="557.52" r="1.56"/><circle class="cls-1" cx="675.3" cy="253.61" r=".66"/><circle class="cls-1" cx="426.16" cy="693.3" r=".78"/><circle class="cls-1" cx="296.76" cy="639.28" r=".5"/><circle class="cls-1" cx="25.51" cy="515.3" r="1.72"/><circle class="cls-1" cx="169.44" cy="987.33" r=".81"/><circle class="cls-1" cx="359.97" cy="744.14" r=".87"/><circle class="cls-1" cx="772.32" cy="909.32" r="1.03"/><circle class="cls-1" cx="983.9" cy="669.72" r="1.94"/><circle class="cls-1" cx="828.75" cy="293.09" r=".69"/><circle class="cls-1" cx="631.88" cy="13.36" r=".87"/><circle class="cls-1" cx="337.52" cy="371.34" r=".74"/><circle class="cls-1" cx="1.81" cy="845.24" r="1.81"/><circle class="cls-1" cx="266.59" cy="884.66" r=".97"/><circle class="cls-1" cx="468.98" cy="482.47" r="1.73"/><circle class="cls-1" cx="832.99" cy="773.53" r="1.4"/><circle class="cls-1" cx="939.04" cy="142.62" r="1.93"/><circle class="cls-1" cx="197.38" cy="780.33" r=".97"/><circle class="cls-1" cx="425.06" cy="278.96" r=".67"/><circle class="cls-1" cx="744.35" cy="381.44" r=".88"/><circle class="cls-1" cx="62.47" cy="176.21" r=".98"/><circle class="cls-1" cx="382" cy="325.15" r="1.26"/><circle class="cls-1" cx="693.98" cy="244.62" r="1.83"/></g><g><circle class="cls-1" cx="356.76" cy="572.89" r="1.29"/><circle class="cls-1" cx="676.66" cy="522.89" r="1.61"/><circle class="cls-1" cx="382.51" cy="731.2" r="1.4"/></g><g><circle class="cls-1" cx="154.55" cy="978.27" r="1.53"/><circle class="cls-1" cx="253.57" cy="817.41" r="1.27"/><circle class="cls-1" cx="261.96" cy="951.44" r="1.66"/><circle class="cls-1" cx="406.13" cy="809.26" r=".96"/><circle class="cls-1" cx="789.32" cy="827.37" r="1.79"/></g></g></g></svg>