<?xml version="1.0" encoding="UTF-8"?><svg id="Layer_2" xmlns="http://www.w3.org/2000/svg" viewBox="0 0 1008.43 984.28"><defs><style>.cls-1{fill:#fff;}</style></defs><g id="Layer_1-2"><g id="Stars1"><g><circle class="cls-1" cx="814.98" cy="528.53" r="1.94"/><circle class="cls-1" cx="518.81" cy="526.28" r="1.97"/></g><circle class="cls-1" cx="274.2" cy="303.23" r=".51"/><circle class="cls-1" cx="359.48" cy="544.29" r=".79"/><circle class="cls-1" cx="686.39" cy="442.59" r="1.54"/><circle class="cls-1" cx="461.6" cy="679.67" r=".56"/><circle class="cls-1" cx="323.06" cy="60.28" r="1.61"/><circle class="cls-1" cx="222.23" cy="431.98" r="1.55"/><circle class="cls-1" cx="531.37" cy="388.81" r=".6"/><circle class="cls-1" cx="749.24" cy="834.51" r=".54"/><circle class="cls-1" cx="290.19" cy="600.42" r="1.15"/><circle class="cls-1" cx="238.22" cy="374.23" r="1.95"/><circle class="cls-1" cx="183.59" cy="238.75" r="1.41"/><circle class="cls-1" cx="628.65" cy="603.88" r="1"/><circle class="cls-1" cx="223.92" cy="504.74" r="1.25"/><circle class="cls-1" cx="545.14" cy="167.23" r=".72"/><circle class="cls-1" cx="689.05" cy="96.61" r=".81"/><circle class="cls-1" cx="180.93" cy="319.12" r="1.09"/><circle class="cls-1" cx="201.36" cy="413.34" r=".72"/><g><circle class="cls-1" cx="667.88" cy="376.81" r=".97"/><circle class="cls-1" cx="484.6" cy="591.57" r="1.13"/><circle class="cls-1" cx="327.79" cy="441.02" r="1.23"/><circle class="cls-1" cx="144.1" cy="373.1" r=".68"/></g><g><circle class="cls-1" cx="930.21" cy="247.16" r="1.43"/><circle class="cls-1" cx="485.7" cy="368.52" r=".57"/><circle class="cls-1" cx="520.94" cy="532.01" r="1.02"/><circle class="cls-1" cx="265.2" cy="603.75" r="1.6"/><circle class="cls-1" cx="480.23" cy="617.95" r="1.85"/><circle class="cls-1" cx="294" cy="620.36" r="1.29"/><circle class="cls-1" cx="186.07" cy="450.31" r="1.68"/><circle class="cls-1" cx="92.13" cy="431.1" r=".83"/><circle class="cls-1" cx="68.05" cy="367.91" r=".72"/><circle class="cls-1" cx="277.97" cy="462.75" r="1.25"/><circle class="cls-1" cx="108.46" cy="174.74" r="1.88"/><circle class="cls-1" cx="343.2" cy="418.13" r="1.42"/><circle class="cls-1" cx="251.78" cy="600.78" r="1.3"/><circle class="cls-1" cx="402.23" cy="419.54" r=".65"/><circle class="cls-1" cx="396.44" cy="606.38" r="1.74"/><circle class="cls-1" cx="280.06" cy="736.75" r=".72"/><circle class="cls-1" cx="511.27" cy="672.98" r="1.17"/></g><g><circle class="cls-1" cx="991.31" cy="529.71" r="1.4"/><circle class="cls-1" cx="848.67" cy="209.44" r=".64"/></g><g><circle class="cls-1" cx="608.14" cy="976.82" r="1.95"/><circle class="cls-1" cx="853.22" cy="733.18" r=".76"/><circle class="cls-1" cx="732.33" cy="576.35" r="1.12"/><circle class="cls-1" cx="322.44" cy="262.03" r="1.04"/><circle class="cls-1" cx="420.43" cy="66.29" r="1.97"/></g><g><circle class="cls-1" cx="775.5" cy="456.81" r="1.39"/><circle class="cls-1" cx="545.98" cy="189.46" r="1.16"/><circle class="cls-1" cx="163.94" cy="200.75" r="1.53"/></g><g><circle class="cls-1" cx="1006.57" cy="458.03" r="1.85"/><circle class="cls-1" cx="658.26" cy="564.82" r="1.9"/><circle class="cls-1" cx="360.34" cy="307.25" r=".69"/></g><g><circle class="cls-1" cx="420.28" cy="205.01" r=".91"/><circle class="cls-1" cx="297.48" cy=".87" r=".87"/><circle class="cls-1" cx="69.14" cy="144.78" r="1.43"/><circle class="cls-1" cx="128.73" cy="67.45" r="1.44"/></g><g><circle class="cls-1" cx="378.06" cy="747.21" r="1.88"/><circle class="cls-1" cx="479.95" cy="376" r=".98"/><circle class="cls-1" cx="706.03" cy="557.26" r="1.3"/></g><g><circle class="cls-1" cx="103.09" cy="527.91" r=".56"/><circle class="cls-1" cx="571.49" cy="611.15" r="1.66"/><circle class="cls-1" cx="330.8" cy="930.77" r="1.3"/></g><g><circle class="cls-1" cx="216.66" cy="694.61" r="1.26"/><circle class="cls-1" cx="344.37" cy="344.73" r=".95"/><circle class="cls-1" cx="784.13" cy="454.17" r="1.56"/></g><g><circle class="cls-1" cx="283.2" cy="304.84" r="1.85"/><circle class="cls-1" cx="315.11" cy="481.93" r="1.46"/></g><g><circle class="cls-1" cx="62.1" cy="476.2" r="1.32"/><circle class="cls-1" cx="451.79" cy="600.73" r="1.77"/><circle class="cls-1" cx="464.8" cy="882.81" r=".73"/></g><g><circle class="cls-1" cx="99.11" cy="590.28" r="1.02"/><circle class="cls-1" cx="350.19" cy="827.56" r="1.38"/></g><g><circle class="cls-1" cx="916.97" cy="69.16" r="1.77"/><circle class="cls-1" cx="930.62" cy="251.17" r="1.7"/><circle class="cls-1" cx="882.85" cy="664.93" r="1.66"/><circle class="cls-1" cx="556.55" cy="747.15" r="1.78"/><circle class="cls-1" cx="709" cy="978.75" r="1.86"/></g><g><circle class="cls-1" cx="777.83" cy="731.79" r="1.63"/><circle class="cls-1" cx="688.89" cy="740.02" r=".76"/></g><circle class="cls-1" cx="18.96" cy="870.48" r="1.14"/><g><circle class="cls-1" cx="72.47" cy="570.47" r=".59"/><circle class="cls-1" cx="215.03" cy="277.82" r="1.1"/></g><circle class="cls-1" cx="55.86" cy="637.25" r="1.12"/><g><circle class="cls-1" cx="458.36" cy="733.27" r="1.42"/><circle class="cls-1" cx="215.44" cy="701.84" r="1.22"/><circle class="cls-1" cx="169.73" cy="493.32" r="1.17"/></g><g><circle class="cls-1" cx="147.92" cy="873.04" r="1.94"/><circle class="cls-1" cx="112.45" cy="204.39" r="1.52"/></g><g><circle class="cls-1" cx="332.68" cy="362.19" r="1.2"/><circle class="cls-1" cx="575.21" cy="491.13" r=".88"/><circle class="cls-1" cx="911.95" cy="749.67" r=".83"/><circle class="cls-1" cx="823.86" cy="86.41" r=".66"/><circle class="cls-1" cx="364.36" cy="284.6" r="1.44"/><circle class="cls-1" cx="1.45" cy="555.22" r="1.45"/><circle class="cls-1" cx="174.85" cy="765.29" r=".86"/><circle class="cls-1" cx="299.4" cy="856.55" r="1.33"/><circle class="cls-1" cx="530.98" cy="824.44" r="1.51"/><circle class="cls-1" cx="713.51" cy="857.91" r="1.07"/><circle class="cls-1" cx="912.73" cy="954.12" r="1.79"/><circle class="cls-1" cx="895.07" cy="224.9" r="1.09"/><circle class="cls-1" cx="573.15" cy="298.18" r=".6"/><circle class="cls-1" cx="316.64" cy="235.49" r="1.33"/><circle class="cls-1" cx="134.47" cy="263.74" r="1.7"/><circle class="cls-1" cx="70.11" cy="982.89" r="1.39"/><circle class="cls-1" cx="763.06" cy="924.86" r="1.4"/><circle class="cls-1" cx="932.09" cy="893.78" r="1.55"/><circle class="cls-1" cx="959.7" cy="580.67" r="1.68"/><circle class="cls-1" cx="704.41" cy="223.34" r="1.88"/><circle class="cls-1" cx="334.74" cy="417.18" r=".94"/></g><g><circle class="cls-1" cx="327.19" cy="549.93" r="1.29"/><circle class="cls-1" cx="647.09" cy="499.94" r="1.61"/><circle class="cls-1" cx="352.94" cy="708.24" r="1.4"/></g></g></g></svg>