<?xml version="1.0" encoding="UTF-8"?><svg id="Layer_2" xmlns="http://www.w3.org/2000/svg" viewBox="0 0 949.82 1009.5"><defs><style>.cls-1{fill:#fff;}</style></defs><g id="Layer_1-2"><g id="Stars3"><g><circle class="cls-1" cx="435.93" cy="403.64" r=".9"/><circle class="cls-1" cx="380.35" cy="452.94" r=".54"/><circle class="cls-1" cx="524.63" cy="297.54" r="1.22"/></g><circle class="cls-1" cx="173.71" cy="151.66" r="1.06"/><circle class="cls-1" cx="209.24" cy="185.95" r="1.33"/><circle class="cls-1" cx="226.74" cy="517.2" r="1.91"/><circle class="cls-1" cx="621.43" cy="222.25" r=".72"/><circle class="cls-1" cx="419.78" cy="111.33" r="1.76"/><circle class="cls-1" cx="123.96" cy="63.46" r="1.04"/><circle class="cls-1" cx="216.79" cy="283.11" r="1.34"/><circle class="cls-1" cx="608.1" cy="484" r=".58"/><circle class="cls-1" cx="335.39" cy="736.14" r="1.71"/><circle class="cls-1" cx="154.17" cy="246.73" r="1.04"/><circle class="cls-1" cx="79.99" cy="286.37" r="1.1"/><circle class="cls-1" cx="389.12" cy="369.41" r="1.88"/><circle class="cls-1" cx="514.78" cy="622.26" r=".74"/><circle class="cls-1" cx="485.91" cy="219.84" r="1.28"/><circle class="cls-1" cx="624.09" cy="128.97" r=".69"/><circle class="cls-1" cx="391.8" cy="384.5" r="1.43"/><circle class="cls-1" cx="306.4" cy="635.92" r="1.02"/><circle class="cls-1" cx="116.86" cy="105.02" r="1.19"/><g><circle class="cls-1" cx="443.27" cy="845.65" r=".56"/><circle class="cls-1" cx="607.38" cy="1009" r=".5"/></g><g><circle class="cls-1" cx="102.63" cy="179.38" r="1.19"/><circle class="cls-1" cx="374.54" cy="341.16" r=".59"/><circle class="cls-1" cx="29.17" cy="473.76" r="1.34"/></g><g><circle class="cls-1" cx="826.59" cy="788.73" r="1.96"/><circle class="cls-1" cx="596.19" cy="569.4" r=".59"/><circle class="cls-1" cx="743.98" cy="266.08" r="1.68"/><circle class="cls-1" cx="750.58" cy="1.3" r="1.3"/></g><g><circle class="cls-1" cx="139.39" cy="907.21" r="1.85"/><circle class="cls-1" cx="516.02" cy="491.17" r="1.89"/><circle class="cls-1" cx="261.38" cy="230.46" r="1.24"/></g><g><circle class="cls-1" cx="887.06" cy="428.09" r=".61"/><circle class="cls-1" cx="636.38" cy="728.37" r=".96"/><circle class="cls-1" cx="510.9" cy="203.67" r="1.92"/><circle class="cls-1" cx="154.66" cy="519.51" r="1.29"/><circle class="cls-1" cx="1.29" cy="409.04" r="1.29"/></g><g><circle class="cls-1" cx="948.26" cy="56.72" r="1.55"/><circle class="cls-1" cx="625.48" cy="104.95" r=".68"/></g><g><circle class="cls-1" cx="116.18" cy="924.79" r="1.32"/><circle class="cls-1" cx="584.48" cy="807.18" r=".89"/><circle class="cls-1" cx="709.14" cy="690.11" r=".83"/><circle class="cls-1" cx="618.66" cy="405.31" r="1.66"/><circle class="cls-1" cx="731.05" cy="153.94" r=".57"/><circle class="cls-1" cx="935.01" cy="123.53" r="1.49"/></g><g><circle class="cls-1" cx="418.58" cy="870.32" r="1.34"/><circle class="cls-1" cx="570.92" cy="552.56" r=".67"/><circle class="cls-1" cx="737.03" cy="359.68" r="1.5"/></g><g><circle class="cls-1" cx="556.05" cy="138.1" r="1.67"/><circle class="cls-1" cx="551.88" cy="418.03" r=".81"/></g><g><circle class="cls-1" cx="142.62" cy="334.3" r=".84"/><circle class="cls-1" cx="120.3" cy="494.64" r="1.55"/><circle class="cls-1" cx="61.64" cy="618.03" r="1.69"/></g></g></g></svg>