<?xml version="1.0" encoding="UTF-8"?><svg id="Layer_2" xmlns="http://www.w3.org/2000/svg" viewBox="0 0 1044.02 988.14"><defs><style>.cls-1{fill:#fff;}</style></defs><g id="Layer_1-2"><g id="Stars2"><g><circle class="cls-1" cx="610.66" cy="147.8" r="1.37"/><circle class="cls-1" cx="256.76" cy="311.08" r=".73"/><circle class="cls-1" cx="98.38" cy="640.27" r=".81"/></g><g><circle class="cls-1" cx="609.74" cy="504.14" r="1.24"/><circle class="cls-1" cx="582.3" cy="737.26" r="1.08"/></g><g><circle class="cls-1" cx="668.7" cy="40.38" r="1.39"/><circle class="cls-1" cx="703.6" cy="536.55" r="1.38"/><circle class="cls-1" cx="846.04" cy="643.02" r="1.45"/><circle class="cls-1" cx="1043.47" cy="848.12" r=".54"/></g><circle class="cls-1" cx="114.81" cy="967.39" r="1.71"/><g><circle class="cls-1" cx="159.28" cy="494.64" r="1.86"/><circle class="cls-1" cx="68.19" cy="265.49" r="1.15"/><circle class="cls-1" cx="333.43" cy="35.36" r="1.94"/><circle class="cls-1" cx="718.99" cy="108.04" r=".53"/></g><g><circle class="cls-1" cx="294.22" cy="856.87" r=".92"/><circle class="cls-1" cx="429.03" cy="294.18" r="1.43"/></g><circle class="cls-1" cx="113.67" cy="427.15" r=".5"/><g><circle class="cls-1" cx="595.87" cy="195.05" r="1.84"/><circle class="cls-1" cx="801.02" cy="540.1" r="1.97"/><circle class="cls-1" cx="816.18" cy="864.06" r=".96"/><circle class="cls-1" cx="971.68" cy="429.69" r="1.29"/><circle class="cls-1" cx="797.76" cy="91.6" r=".63"/><circle class="cls-1" cx="313.05" cy="292.49" r=".66"/><circle class="cls-1" cx="337.85" cy="614.91" r=".91"/><circle class="cls-1" cx="541.48" cy="928.21" r="1.85"/><circle class="cls-1" cx="184.48" cy="970.05" r=".55"/><circle class="cls-1" cx="763.87" cy="808.17" r="1.2"/><circle class="cls-1" cx="887.18" cy="598.91" r="1.13"/><circle class="cls-1" cx="888.67" cy="452.61" r=".78"/><circle class="cls-1" cx="492.86" cy="110.11" r="1.2"/><circle class="cls-1" cx="120.06" cy="3.34" r=".8"/><circle class="cls-1" cx="61.51" cy="194.93" r="1.68"/><circle class="cls-1" cx="163.9" cy="542" r=".53"/><circle class="cls-1" cx="92.61" cy="845.93" r=".59"/><circle class="cls-1" cx="785.48" cy="940.82" r="1.01"/><circle class="cls-1" cx="324.15" cy="789.53" r=".68"/><circle class="cls-1" cx="551.01" cy="525.46" r="1.87"/><circle class="cls-1" cx="318.01" cy="367.22" r=".64"/><circle class="cls-1" cx="534.23" cy="228.44" r="1.82"/><circle class="cls-1" cx="576.48" cy="1.46" r="1.46"/><circle class="cls-1" cx="52.54" cy="764.81" r=".77"/><circle class="cls-1" cx="237.58" cy="441.97" r="1.97"/><circle class="cls-1" cx="558.03" cy="197.11" r="1.49"/></g><g><circle class="cls-1" cx="968.98" cy="557.52" r="1.56"/><circle class="cls-1" cx="675.3" cy="253.61" r=".66"/><circle class="cls-1" cx="426.16" cy="693.3" r=".78"/><circle class="cls-1" cx="296.76" cy="639.28" r=".5"/><circle class="cls-1" cx="25.51" cy="515.3" r="1.72"/><circle class="cls-1" cx="169.44" cy="987.33" r=".81"/><circle class="cls-1" cx="359.97" cy="744.14" r=".87"/><circle class="cls-1" cx="772.32" cy="909.32" r="1.03"/><circle class="cls-1" cx="983.9" cy="669.72" r="1.94"/><circle class="cls-1" cx="828.75" cy="293.09" r=".69"/><circle class="cls-1" cx="631.88" cy="13.36" r=".87"/><circle class="cls-1" cx="337.52" cy="371.34" r=".74"/><circle class="cls-1" cx="1.81" cy="845.24" r="1.81"/><circle class="cls-1" cx="266.59" cy="884.66" r=".97"/><circle class="cls-1" cx="468.98" cy="482.47" r="1.73"/><circle class="cls-1" cx="832.99" cy="773.53" r="1.4"/><circle class="cls-1" cx="939.04" cy="142.62" r="1.93"/><circle class="cls-1" cx="197.38" cy="780.33" r=".97"/><circle class="cls-1" cx="425.06" cy="278.96" r=".67"/><circle class="cls-1" cx="744.35" cy="381.44" r=".88"/><circle class="cls-1" cx="62.47" cy="176.21" r=".98"/><circle class="cls-1" cx="382" cy="325.15" r="1.26"/><circle class="cls-1" cx="693.98" cy="244.62" r="1.83"/></g><g><circle class="cls-1" cx="154.55" cy="978.27" r="1.53"/><circle class="cls-1" cx="253.57" cy="817.41" r="1.27"/><circle class="cls-1" cx="261.96" cy="951.44" r="1.66"/><circle class="cls-1" cx="406.13" cy="809.26" r=".96"/><circle class="cls-1" cx="789.32" cy="827.37" r="1.79"/></g></g></g></svg>